<svg id="Layer_1" data-name="Layer 1" xmlns="http://www.w3.org/2000/svg" viewBox="0 0 264.95 129.87"><defs><style>.cls-1{fill:#fff;}</style></defs><title>GL-2</title><g id="ZgkjuM"><path class="cls-1" d="M105.84,129.38l6-3.81c12.92-8.2,25-17.42,35.14-29S164.31,71.72,166.27,56c1.29-10.44-5.09-15.21-13.2-16.42-11.36-1.69-22,1.11-32.22,5.69-.68.3-1.35.65-2,1a2.69,2.69,0,0,1-.59,0c.2-1,.33-1.89.59-2.78C123.89,26.14,134,13,150.64,5.51A63.22,63.22,0,0,1,178.09.11c39,.74,78.29,29.55,85.7,75.13,3,18.25.26,36-5.6,53.34-.19.57-1.08,1-1.72,1.31-.33.17-.82,0-1.23,0H106.06ZM129.6,35.63l2.21-.79c8.94-3.12,18-4.19,27.19-1.25,11.39,3.65,17.72,13.58,13.5,23.27a3.39,3.39,0,0,0,.67,3.06,3,3,0,0,0,2.92-.09,46.49,46.49,0,0,0,5.05-5.4c1.54-1.85,2.75-4,4.41-5.71,2.59-2.68,5.73-2.6,8.35.07a16.13,16.13,0,0,1,2.61,3.63c1.58,2.93,2.92,6,4.53,8.89a15.17,15.17,0,0,0,3,3.93c2.61,2.35,6.19,1.29,7-2.12a19.1,19.1,0,0,0,.22-5.68c-.21-2.9-.71-5.78-1-8.68-.49-4.44.52-7.18,2.92-8.05,2.59-.94,5.48.29,7.93,3.86,2.25,3.29,4.12,6.84,6.25,10.21a41.61,41.61,0,0,0,4.15,5.9c2.84,3.13,5.51,3.06,8.63.14s4-6.46,3.67-10.45a28,28,0,0,0-7.65-17c-15.9-17.18-35.64-26.18-59-26.7a52.38,52.38,0,0,0-27.56,6.77A46.84,46.84,0,0,0,129.6,35.63Z" transform="translate(-0.06 -0.1)"/><path class="cls-1" d="M44.55,66h5.72c0,.84.12,1.57.12,2.29,0,4.75-.35,9.53.11,14.23.41,4.11-1.36,6.19-4.66,8-11.33,6.24-27,5-36.3-3.26-8.82-7.89-11.16-18-8.38-29.12S11.67,40.46,22.75,38A33.6,33.6,0,0,1,40.48,39a23.55,23.55,0,0,1,10.29,6.53l-3.91,2.83c-3.46-1.55-7.19-3.91-11.25-4.89-9.16-2.2-17.47.08-23.82,7.2-6.12,6.85-7.24,15-4.19,23.57,3.56,10.05,15.33,16.61,26.22,14.51a63.62,63.62,0,0,0,8.92-2.94c1.42-.5,1.87-1.56,1.84-3.11C44.49,77.18,44.55,71.7,44.55,66Z" transform="translate(-0.06 -0.1)"/><path class="cls-1" d="M67.09,37.94h5.84V88.63h31.3v5.24H67.09Z" transform="translate(-0.06 -0.1)"/></g></svg>